<svg width="398" height="510" viewBox="0 0 398 510" fill="none" xmlns="http://www.w3.org/2000/svg">
<g opacity="0.4">
<path fill-rule="evenodd" clip-rule="evenodd" d="M296.891 48.0777C296.891 74.4507 275.511 95.8287 249.139 95.8287C222.767 95.8287 201.388 74.4507 201.388 48.0777C201.388 21.7057 222.767 0.32666 249.139 0.32666C275.511 0.32666 296.891 21.7057 296.891 48.0777Z" fill="#FFBF71"/>
<path fill-rule="evenodd" clip-rule="evenodd" d="M249.139 87.8706C227.12 87.8706 209.346 70.0966 209.346 48.0776C209.346 26.0586 227.12 8.28564 249.139 8.28564C253.118 8.28564 257.098 8.81564 260.812 10.1416L263.464 11.2036C264.791 11.7336 265.322 13.3256 264.791 14.6516C264.26 15.9776 262.668 16.7736 261.342 15.9776L258.954 14.9166C256.036 14.1206 252.588 13.5906 249.139 13.5906C230.038 13.5906 214.652 28.9766 214.652 48.0776C214.652 67.1786 230.038 82.5646 249.139 82.5646C258.424 82.5646 266.913 79.1166 273.545 72.4836C280.177 65.8516 283.626 57.3626 283.626 48.0776C283.626 40.1196 280.973 32.1606 275.667 26.0586C274.607 24.9976 274.871 23.1416 275.933 22.3456C276.994 21.2846 278.851 21.5496 279.647 22.6106C285.483 29.7726 288.666 38.7926 288.666 47.8126C288.666 58.4236 284.422 68.5046 276.994 75.9326C269.566 83.6256 259.75 87.8706 249.139 87.8706Z" fill="#F4F5FA"/>
<path fill-rule="evenodd" clip-rule="evenodd" d="M255.771 66.6474H240.916C236.14 66.6474 232.426 62.9334 232.426 58.1584C232.426 56.5664 233.488 55.5054 235.08 55.5054C236.671 55.5054 237.732 56.5664 237.732 58.1584C237.732 60.0154 239.058 61.3414 240.916 61.3414H255.771C257.894 61.3414 259.75 59.4844 259.75 57.3624V54.7094C259.75 52.5874 257.894 50.7304 255.771 50.7304H241.181C236.14 50.7304 231.896 46.4854 231.896 41.4454V38.7934C231.896 33.7524 236.14 29.5074 241.181 29.5074H256.833C260.812 29.5074 264.26 32.6914 264.26 36.9354C264.26 38.5274 263.2 39.5884 261.608 39.5884C260.016 39.5884 258.955 38.5274 258.955 36.9354C258.955 35.8744 258.159 34.8134 256.833 34.8134H241.181C239.058 34.8134 237.202 36.6704 237.202 38.7934V41.4454C237.202 43.5674 239.058 45.4244 241.181 45.4244H255.771C260.812 45.4244 265.056 49.6694 265.056 54.7094V57.3624C265.056 62.4034 260.812 66.6474 255.771 66.6474Z" fill="#F4F5FA"/>
<path fill-rule="evenodd" clip-rule="evenodd" d="M249.404 74.6064C247.812 74.6064 246.751 73.5444 246.751 71.9534V24.2024C246.751 22.6104 247.812 21.5494 249.404 21.5494C250.996 21.5494 252.056 22.6104 252.056 24.2024V71.9534C252.056 73.5444 250.996 74.6064 249.404 74.6064Z" fill="#F4F5FA"/>
<path fill-rule="evenodd" clip-rule="evenodd" d="M270.361 21.5493H269.831C269.565 21.5493 269.565 21.5493 269.3 21.2843C269.035 21.2843 269.035 21.2843 268.769 21.0183C268.505 21.0183 268.505 20.7533 268.505 20.7533C267.974 20.2223 267.709 19.6923 267.709 18.8963C267.709 18.6313 267.709 18.1003 267.973 17.8353C267.973 17.5703 268.239 17.3043 268.505 17.0393L268.769 16.7743C268.769 16.7743 269.035 16.5083 269.3 16.5083C269.565 16.5083 269.565 16.5083 269.831 16.2433C270.361 16.2433 270.892 16.2433 271.423 16.5083C271.688 16.5083 271.953 16.7743 272.218 17.0393C272.484 17.3043 272.749 17.5703 272.749 17.8353C272.749 18.1003 273.014 18.3653 273.014 18.8963C273.014 19.6923 272.749 20.2223 272.218 20.7533C271.953 21.0183 271.688 21.2843 271.423 21.2843C270.892 21.5493 270.627 21.5493 270.361 21.5493Z" fill="#F4F5FA"/>
<path fill-rule="evenodd" clip-rule="evenodd" d="M193.429 140.927C193.429 176.09 164.924 204.595 129.761 204.595C94.5973 204.595 66.0923 176.09 66.0923 140.927C66.0923 105.764 94.5973 77.2592 129.761 77.2592C164.924 77.2592 193.429 105.764 193.429 140.927Z" fill="#FFBF71"/>
<path fill-rule="evenodd" clip-rule="evenodd" d="M129.761 193.188C115.701 193.188 102.702 187.617 92.8858 177.802C83.0708 167.986 77.4998 154.722 77.7648 140.927C77.7648 126.867 83.3358 113.868 93.1518 104.052C102.967 94.2374 115.966 88.9314 130.026 88.9314C135.332 88.9314 140.372 89.7274 145.413 91.3194L148.862 92.6454C150.188 93.1764 150.719 94.7684 150.188 96.0944C149.657 97.4204 148.066 97.9514 146.739 97.4204L143.556 96.0944C139.311 94.7684 134.802 93.9724 130.026 93.9724C117.558 93.9724 105.885 98.7474 96.8648 107.766C88.1108 116.521 83.0708 128.459 83.0708 140.927C83.0708 153.396 87.8458 165.333 96.8648 174.087C105.62 182.842 117.558 187.882 130.026 187.882C142.494 187.882 154.167 183.107 163.187 174.087C171.941 165.333 176.982 153.396 176.982 140.927C176.982 130.05 173.268 119.439 166.37 111.215C165.309 110.154 165.574 108.297 166.636 107.501C167.697 106.44 169.553 106.705 170.349 107.766C178.043 117.051 182.287 128.989 182.287 140.927C182.287 154.987 176.717 167.986 166.901 177.802C156.554 187.617 143.556 193.188 129.761 193.188Z" fill="#F4F5FA"/>
<path fill-rule="evenodd" clip-rule="evenodd" d="M138.515 164.803H118.884C113.048 164.803 108.537 160.028 108.537 154.457C108.537 152.865 109.599 151.804 111.19 151.804C112.782 151.804 113.844 152.865 113.844 154.457C113.844 157.375 116.231 159.497 118.884 159.497H138.515C141.964 159.497 144.617 156.579 144.617 153.13V149.681C144.617 146.233 141.698 143.58 138.515 143.58H119.149C112.782 143.58 107.742 138.54 107.742 132.173V128.724C107.742 122.357 112.782 117.317 119.149 117.317H140.107C145.147 117.317 149.126 121.296 149.126 126.337C149.126 127.928 148.065 128.99 146.473 128.99C144.882 128.99 143.821 127.928 143.821 126.337C143.821 124.48 142.229 122.623 140.107 122.623H119.149C115.701 122.623 113.048 125.541 113.048 128.724V132.173C113.048 135.621 115.966 138.274 119.149 138.274H138.515C144.882 138.274 149.922 143.315 149.922 149.681V153.13C149.922 159.497 144.882 164.803 138.515 164.803Z" fill="#F4F5FA"/>
<path fill-rule="evenodd" clip-rule="evenodd" d="M130.026 175.415C128.434 175.415 127.373 174.354 127.373 172.762V109.094C127.373 107.502 128.434 106.441 130.026 106.441C131.618 106.441 132.679 107.502 132.679 109.094V172.762C132.679 174.354 131.618 175.415 130.026 175.415Z" fill="#F4F5FA"/>
<path fill-rule="evenodd" clip-rule="evenodd" d="M157.881 104.583C157.085 104.583 156.554 104.318 156.024 103.787C155.493 103.256 155.228 102.726 155.228 101.93C155.228 101.665 155.228 101.134 155.493 100.869C155.758 100.604 155.758 100.338 156.024 100.073C157.085 99.0125 158.677 99.0125 159.738 100.073C160.003 100.338 160.269 100.604 160.269 100.869C160.269 101.134 160.534 101.665 160.534 101.93C160.534 102.726 160.269 103.256 159.738 103.787C159.473 104.052 159.207 104.318 158.942 104.318C158.677 104.583 158.412 104.583 157.881 104.583Z" fill="#F4F5FA"/>
<path fill-rule="evenodd" clip-rule="evenodd" d="M116.497 247.041C110.661 247.041 105.885 242.266 105.885 236.43C105.885 230.593 110.661 225.818 116.497 225.818C122.333 225.818 127.108 230.593 127.108 236.43C127.108 242.266 122.333 247.041 116.497 247.041ZM116.497 231.124C113.579 231.124 111.191 233.511 111.191 236.43C111.191 239.348 113.579 241.735 116.497 241.735C119.415 241.735 121.803 239.348 121.803 236.43C121.803 233.511 119.415 231.124 116.497 231.124Z" fill="#C0C4D1"/>
<path fill-rule="evenodd" clip-rule="evenodd" d="M143.025 273.57C137.189 273.57 132.414 268.795 132.414 262.959C132.414 257.122 137.189 252.347 143.025 252.347C148.861 252.347 153.636 257.122 153.636 262.959C153.636 268.795 148.861 273.57 143.025 273.57ZM143.025 257.652C140.107 257.652 137.719 260.04 137.719 262.959C137.719 265.877 140.107 268.264 143.025 268.264C145.943 268.264 148.331 265.877 148.331 262.959C148.331 260.04 145.943 257.652 143.025 257.652Z" fill="#C0C4D1"/>
<path fill-rule="evenodd" clip-rule="evenodd" d="M109.283 266.314L146.425 229.172L150.176 232.924L113.034 270.065L109.283 266.314Z" fill="#C0C4D1"/>
<path fill-rule="evenodd" clip-rule="evenodd" d="M347 90.611H352.306V80H347V90.611Z" fill="#C0C4D1"/>
<path fill-rule="evenodd" clip-rule="evenodd" d="M347 116.611H352.306V106H347V116.611Z" fill="#C0C4D1"/>
<path fill-rule="evenodd" clip-rule="evenodd" d="M358 101.306H368.611V96H358V101.306Z" fill="#C0C4D1"/>
<path fill-rule="evenodd" clip-rule="evenodd" d="M331 101.306H341.611V96H331V101.306Z" fill="#C0C4D1"/>
<path fill-rule="evenodd" clip-rule="evenodd" d="M230.569 262.959C230.569 267.354 227.006 270.917 222.61 270.917C218.215 270.917 214.651 267.354 214.651 262.959C214.651 258.563 218.215 255 222.61 255C227.006 255 230.569 258.563 230.569 262.959Z" fill="#FFBF71"/>
<path fill-rule="evenodd" clip-rule="evenodd" d="M222.61 272.243C217.57 272.243 213.325 267.999 213.325 262.959C213.325 257.918 217.57 253.674 222.61 253.674C227.65 253.674 231.895 257.918 231.895 262.959C231.895 267.999 227.65 272.243 222.61 272.243ZM222.61 256.326C218.896 256.326 215.978 259.244 215.978 262.959C215.978 266.673 218.896 269.591 222.61 269.591C226.324 269.591 229.242 266.673 229.242 262.959C229.242 259.244 226.058 256.326 222.61 256.326Z" fill="#FFBF71"/>
<path fill-rule="evenodd" clip-rule="evenodd" d="M161.595 61.3418C161.595 65.7378 158.032 69.2998 153.637 69.2998C149.241 69.2998 145.678 65.7378 145.678 61.3418C145.678 56.9468 149.241 53.3838 153.637 53.3838C158.032 53.3838 161.595 56.9468 161.595 61.3418Z" fill="#FFBF71"/>
<path fill-rule="evenodd" clip-rule="evenodd" d="M153.636 70.6269C148.595 70.6269 144.351 66.3819 144.351 61.3419C144.351 56.3019 148.595 52.0569 153.636 52.0569C158.677 52.0569 162.921 56.3019 162.921 61.3419C162.921 66.3819 158.677 70.6269 153.636 70.6269ZM153.636 54.7099C149.922 54.7099 147.004 57.6279 147.004 61.3419C147.004 65.0559 149.922 67.9739 153.636 67.9739C157.35 67.9739 160.268 65.0559 160.268 61.3419C160.268 57.6279 157.085 54.7099 153.636 54.7099Z" fill="#FFBF71"/>
<path fill-rule="evenodd" clip-rule="evenodd" d="M50.1754 186.026C50.1754 191.886 45.4244 196.637 39.5644 196.637C33.7034 196.637 28.9524 191.886 28.9524 186.026C28.9524 180.166 33.7034 175.415 39.5644 175.415C45.4244 175.415 50.1754 180.166 50.1754 186.026Z" fill="#FFBF71"/>
<path fill-rule="evenodd" clip-rule="evenodd" d="M39.564 197.964C32.932 197.964 27.626 192.658 27.626 186.026C27.626 179.394 32.932 174.088 39.564 174.088C46.196 174.088 51.502 179.394 51.502 186.026C51.502 192.658 45.931 197.964 39.564 197.964ZM39.564 176.741C34.523 176.741 30.279 180.985 30.279 186.026C30.279 191.067 34.523 195.311 39.564 195.311C44.604 195.311 48.849 191.067 48.849 186.026C48.849 180.985 44.604 176.741 39.564 176.741Z" fill="#FFBF71"/>
<path fill-rule="evenodd" clip-rule="evenodd" d="M233.222 225.818H397.699V146.233H233.222V225.818Z" fill="#8A91FF"/>
<path fill-rule="evenodd" clip-rule="evenodd" d="M322.358 204.331H307.503C302.727 204.331 299.013 200.617 299.013 195.842H304.319C304.319 197.699 305.645 199.025 307.503 199.025H322.358C324.48 199.025 326.337 197.168 326.337 195.046V192.393C326.337 190.271 324.48 188.414 322.358 188.414H307.767C302.727 188.414 298.482 184.169 298.482 179.129V176.476C298.482 171.435 302.727 167.191 307.767 167.191H323.684C327.664 167.191 331.113 170.374 331.113 174.619H325.807C325.807 173.558 324.746 172.497 323.684 172.497H307.767C305.645 172.497 303.788 174.354 303.788 176.476V179.129C303.788 181.251 305.645 183.108 307.767 183.108H322.358C327.398 183.108 331.643 187.353 331.643 192.393V195.046C331.909 200.086 327.664 204.331 322.358 204.331Z" fill="#F4F5FA"/>
<path fill-rule="evenodd" clip-rule="evenodd" d="M313.072 209.901H318.378V162.15H313.072V209.901Z" fill="#F4F5FA"/>
<path fill-rule="evenodd" clip-rule="evenodd" d="M341.988 188.679H357.905V183.373H341.988V188.679Z" fill="#F4F5FA"/>
<path fill-rule="evenodd" clip-rule="evenodd" d="M341.724 199.29H357.641V193.984H341.724V199.29Z" fill="#F4F5FA"/>
<path fill-rule="evenodd" clip-rule="evenodd" d="M341.988 178.068H357.905V172.762H341.988V178.068Z" fill="#F4F5FA"/>
<path fill-rule="evenodd" clip-rule="evenodd" d="M273.015 188.944H288.932V183.638H273.015V188.944Z" fill="#F4F5FA"/>
<path fill-rule="evenodd" clip-rule="evenodd" d="M273.279 178.333H289.197V173.027H273.279V178.333Z" fill="#F4F5FA"/>
<path fill-rule="evenodd" clip-rule="evenodd" d="M273.015 199.555H288.932V194.249H273.015V199.555Z" fill="#F4F5FA"/>
<path fill-rule="evenodd" clip-rule="evenodd" d="M238.528 220.513H392.393V151.539H238.528V220.513ZM243.833 215.207H387.087V156.845H243.833V215.207Z" fill="#F4F5FA"/>
<path fill-rule="evenodd" clip-rule="evenodd" d="M76.7037 453.964C75.1117 453.964 74.0507 452.902 74.0507 451.311V431.945L5.87271 381.276C2.42371 378.888 0.566711 374.909 0.566711 370.664V294.262H3.21971C23.9117 294.262 26.2997 310.975 26.2997 323.443V356.073L34.7887 363.502C35.8497 364.563 35.8497 366.154 35.0537 367.216C33.9927 368.276 32.4007 368.542 31.3397 367.481L21.2597 358.461V323.443C21.2597 307.792 16.7487 300.629 6.13771 299.833V370.93C6.13771 373.318 7.46471 375.705 9.32171 377.296L79.6217 429.558V451.576C79.3567 452.902 78.0307 453.964 76.7037 453.964Z" fill="#C0C4D1"/>
<path fill-rule="evenodd" clip-rule="evenodd" d="M43.8082 362.706C43.2782 362.706 42.4822 362.44 41.9512 362.175L31.0752 352.625V292.405C31.0752 276.488 26.8302 269.591 16.2192 268.795V297.711C16.2192 299.303 15.1582 300.363 13.5662 300.363C11.9742 300.363 10.9132 299.303 10.9132 297.711V263.224H13.5662C33.9932 263.224 36.3802 278.876 36.3802 292.405V350.237L45.4002 358.196C46.4612 359.257 46.7262 360.849 45.6652 361.91C45.4002 362.44 44.6042 362.706 43.8082 362.706Z" fill="#C0C4D1"/>
<path fill-rule="evenodd" clip-rule="evenodd" d="M54.42 357.4C53.889 357.4 53.093 357.134 52.563 356.869L41.686 347.319V284.446C41.686 268.529 37.441 261.631 26.83 260.836V266.141C26.83 267.733 25.769 268.795 24.177 268.795C22.586 268.795 21.524 267.733 21.524 266.141V255.265H24.177C44.604 255.265 46.992 270.917 46.992 284.446V344.931L56.011 352.89C57.073 353.951 57.338 355.543 56.277 356.604C56.011 357.134 55.215 357.4 54.42 357.4Z" fill="#C0C4D1"/>
<path fill-rule="evenodd" clip-rule="evenodd" d="M171.676 483.145H166.37V453.963H68.2148V483.145H62.9088V448.658H171.676V483.145Z" fill="#C0C4D1"/>
<path fill-rule="evenodd" clip-rule="evenodd" d="M50 510H178V475H50V510Z" fill="#8A91FF"/>
<path fill-rule="evenodd" clip-rule="evenodd" d="M87.3333 497H76.6667C75.0675 497 74 495.8 74 494.001C74 492.201 75.0675 491 76.6667 491H87.3333C88.9325 491 90 492.201 90 494.001C90 495.8 88.9325 497 87.3333 497Z" fill="#F4F5FA"/>
<path fill-rule="evenodd" clip-rule="evenodd" d="M70.958 501.917C66.448 501.917 63 498.469 63 493.959C63 489.449 66.448 486 70.958 486C75.468 486 78.916 489.449 78.916 493.959C78.916 498.469 75.468 501.917 70.958 501.917ZM70.958 491.306C69.367 491.306 68.305 492.367 68.305 493.959C68.305 495.551 69.367 496.611 70.958 496.611C72.55 496.611 73.611 495.551 73.611 493.959C73.611 492.367 72.55 491.306 70.958 491.306Z" fill="#F4F5FA"/>
<path fill-rule="evenodd" clip-rule="evenodd" d="M160.799 453.964C159.207 453.964 158.146 452.638 158.146 451.311L158.942 306.731C150.188 306.731 143.025 313.894 143.025 322.648V353.686C143.025 360.583 139.576 366.95 134.006 370.664C128.434 374.378 121.272 375.174 114.905 372.522L69.5409 353.421L52.5629 339.36V284.446C52.5629 267.203 47.5229 260.571 35.0539 260.571C33.4629 260.571 32.4009 259.51 32.4009 257.918C32.4009 256.326 33.4629 255.266 35.0539 255.266C55.4809 255.266 57.8679 270.917 57.8679 284.446V336.973L72.4589 349.176L116.762 367.746C121.537 369.604 126.577 369.072 130.822 366.42C135.067 363.502 137.454 358.992 137.454 353.951V322.648C137.454 310.976 147.004 301.425 158.677 301.425H163.983L163.187 451.311C163.452 452.902 162.126 453.964 160.799 453.964Z" fill="#C0C4D1"/>
<path fill-rule="evenodd" clip-rule="evenodd" d="M310.685 453.964C309.094 453.964 308.033 452.902 308.033 451.311V429.292L378.333 377.031C380.456 375.44 381.516 373.052 381.516 370.664V299.568C370.64 300.629 366.395 307.527 366.395 323.179V358.196L356.315 367.216C355.253 368.276 353.662 368.012 352.6 366.95C351.539 365.889 351.804 364.298 352.866 363.236L361.355 355.809V323.178C361.355 310.71 363.743 293.997 384.435 293.997H387.087V370.4C387.087 374.644 384.965 378.623 381.782 381.011L313.604 431.68V451.046C313.338 452.902 312.277 453.964 310.685 453.964Z" fill="#C0C4D1"/>
<path fill-rule="evenodd" clip-rule="evenodd" d="M343.58 362.706C342.784 362.706 341.988 362.44 341.458 361.91C340.396 360.849 340.662 359.257 341.724 358.196L350.743 350.237V292.405C350.743 278.876 353.395 263.224 373.558 263.224H376.21V297.445C376.21 299.037 375.149 300.099 373.558 300.099C371.966 300.099 370.904 299.037 370.904 297.445V268.529C360.293 269.325 356.049 276.223 356.049 292.14V352.359L345.172 361.91C344.642 362.706 344.111 362.706 343.58 362.706Z" fill="#C0C4D1"/>
<path fill-rule="evenodd" clip-rule="evenodd" d="M332.969 357.4C332.173 357.4 331.377 357.134 330.847 356.604C329.785 355.543 330.051 353.951 331.113 352.89L340.132 344.931V284.446C340.132 270.917 342.784 255.265 362.947 255.265H365.599V266.141C365.599 267.733 364.538 268.795 362.947 268.795C361.355 268.795 360.293 267.733 360.293 266.141V260.836C349.682 261.631 345.438 268.529 345.438 284.446V347.319L334.561 356.869C334.031 357.4 333.499 357.4 332.969 357.4Z" fill="#C0C4D1"/>
<path fill-rule="evenodd" clip-rule="evenodd" d="M324.48 483.145H319.174V453.963H221.019V483.145H215.713V448.658H324.48V483.145Z" fill="#C0C4D1"/>
<path fill-rule="evenodd" clip-rule="evenodd" d="M210 510H337V475H210V510Z" fill="#8A91FF"/>
<path fill-rule="evenodd" clip-rule="evenodd" d="M310.265 497H299.654C298.062 497 297 495.8 297 494.001C297 492.201 298.062 491 299.654 491H310.265C311.857 491 312.917 492.201 312.917 494.001C312.917 495.8 311.591 497 310.265 497Z" fill="#F4F5FA"/>
<path fill-rule="evenodd" clip-rule="evenodd" d="M316.001 502C311.467 502 308 498.534 308 494.001C308 489.467 311.467 486 316.001 486C320.534 486 324 489.467 324 494.001C324 498.534 320.267 502 316.001 502ZM316.001 491.334C314.4 491.334 313.334 492.4 313.334 494.001C313.334 495.601 314.4 496.666 316.001 496.666C317.601 496.666 318.666 495.601 318.666 494.001C318.666 492.4 317.333 491.334 316.001 491.334Z" fill="#F4F5FA"/>
<path fill-rule="evenodd" clip-rule="evenodd" d="M226.59 453.964C225.264 453.964 223.937 452.902 223.937 451.311L223.141 301.425H228.446C240.119 301.425 249.669 310.976 249.669 322.648V353.686C249.669 358.727 252.057 363.502 256.302 366.154C260.546 369.072 265.852 369.604 270.361 367.481L314.664 348.911L329.255 336.708V284.182C329.255 270.652 331.908 255 352.069 255C353.661 255 354.723 256.062 354.723 257.652C354.723 259.244 353.661 260.306 352.069 260.306C339.336 260.306 334.561 266.938 334.561 284.182V339.096L317.052 353.421L272.485 371.99C266.117 374.644 258.954 373.848 253.384 370.134C247.813 366.42 244.363 360.053 244.363 353.155V322.648C244.363 313.894 237.201 306.731 228.446 306.731L229.242 451.311C229.242 452.638 228.182 453.964 226.59 453.964Z" fill="#C0C4D1"/>
</g>
</svg>
