<svg width="104" height="30" viewBox="0 0 104 30" fill="none" xmlns="http://www.w3.org/2000/svg">
<path d="M2.241 6.1H10.827C12.879 6.1 14.688 6.496 16.254 7.288C17.838 8.062 19.062 9.16 19.926 10.582C20.808 12.004 21.249 13.66 21.249 15.55C21.249 17.44 20.808 19.096 19.926 20.518C19.062 21.94 17.838 23.047 16.254 23.839C14.688 24.613 12.879 25 10.827 25H2.241V6.1ZM10.611 21.409C12.501 21.409 14.004 20.887 15.12 19.843C16.254 18.781 16.821 17.35 16.821 15.55C16.821 13.75 16.254 12.328 15.12 11.284C14.004 10.222 12.501 9.691 10.611 9.691H6.615V21.409H10.611ZM29.5476 6.1H33.9216V21.436H43.3986V25H29.5476V6.1ZM65.4766 21.49V25H50.8426V6.1H65.1256V9.61H55.1896V13.714H63.9646V17.116H55.1896V21.49H65.4766ZM85.8638 25L81.3008 18.439L76.8188 25H71.7968L78.7898 15.388L72.1478 6.1H77.1158L81.4628 12.229L85.7288 6.1H90.4538L83.8658 15.226L90.9128 25H85.8638Z" fill="#6B6F81"/>
<rect x="99" y="21" width="5" height="5" fill="#8A91FF"/>
</svg>
