<svg width="22" height="31" viewBox="0 0 22 31" fill="none" xmlns="http://www.w3.org/2000/svg">
<path d="M5 12V6C5 2.7 7.7 0 11 0V0C14.3 0 17 2.7 17 6V12" stroke="#8A91FF" stroke-width="2"/>
<path fill-rule="evenodd" clip-rule="evenodd" d="M11 30C16.5228 30 21 25.5228 21 20C21 14.4772 16.5228 10 11 10C5.47715 10 1 14.4772 1 20C1 25.5228 5.47715 30 11 30Z" stroke="#8A91FF" stroke-width="2" stroke-linecap="square"/>
<path d="M11 21V24" stroke="#8A91FF" stroke-width="2" stroke-linecap="square"/>
<path fill-rule="evenodd" clip-rule="evenodd" d="M11 21C12.6569 21 14 19.6569 14 18C14 16.3431 12.6569 15 11 15C9.34315 15 8 16.3431 8 18C8 19.6569 9.34315 21 11 21Z" stroke="#8A91FF" stroke-width="2" stroke-linecap="square"/>
</svg>
