<svg width="27" height="31" viewBox="0 0 27 31" fill="none" xmlns="http://www.w3.org/2000/svg">
<g opacity="0.9">
<path fill-rule="evenodd" clip-rule="evenodd" d="M24.5 30.5H2.5C1.395 30.5 0.5 29.605 0.5 28.5V2.5C0.5 1.395 1.395 0.5 2.5 0.5H24.5C25.605 0.5 26.5 1.395 26.5 2.5V28.5C26.5 29.605 25.605 30.5 24.5 30.5Z" stroke="#B0B4C4" stroke-linecap="square"/>
<rect x="4.5" y="4.5" width="18" height="18" stroke="#B0B4C4" stroke-linecap="square"/>
<path d="M13.5 27.5C14.0523 27.5 14.5 27.0523 14.5 26.5C14.5 25.9477 14.0523 25.5 13.5 25.5C12.9477 25.5 12.5 25.9477 12.5 26.5C12.5 27.0523 12.9477 27.5 13.5 27.5Z" fill="#444444"/>
</g>
</svg>
